<mxfile host="app.diagrams.net" modified="2022-11-29T16:47:06.210Z" agent="5.0 (Macintosh; Intel Mac OS X 10_15_7) AppleWebKit/537.36 (KHTML, like Gecko) Chrome/107.0.0.0 Safari/537.36" version="20.6.0" etag="_GW-uFUXh4bZ97sNSsw3" type="github">
  <diagram id="XeitPLsjih--VH7lZSAs" name="Page-1">
    <mxGraphModel dx="1903" dy="923" grid="0" gridSize="10" guides="1" tooltips="1" connect="1" arrows="1" fold="1" page="0" pageScale="1" pageWidth="827" pageHeight="1169" math="0" shadow="0">
      <root>
        <mxCell id="0" />
        <mxCell id="1" parent="0" />
        <mxCell id="OMyN0Gsu02lCNr_6fPPk-34" style="edgeStyle=orthogonalEdgeStyle;rounded=0;orthogonalLoop=1;jettySize=auto;html=1;fontSize=20;curved=1;entryX=0.237;entryY=0.075;entryDx=0;entryDy=0;entryPerimeter=0;" edge="1" parent="1" source="OMyN0Gsu02lCNr_6fPPk-28" target="OMyN0Gsu02lCNr_6fPPk-32">
          <mxGeometry relative="1" as="geometry" />
        </mxCell>
        <mxCell id="OMyN0Gsu02lCNr_6fPPk-28" value="Pipeline ML" style="ellipse;whiteSpace=wrap;html=1;fillColor=none;labelPosition=center;verticalLabelPosition=top;align=center;verticalAlign=bottom;fontSize=20;dashed=1;strokeColor=#999999;" vertex="1" parent="1">
          <mxGeometry x="-110" y="-40" width="1230" height="530" as="geometry" />
        </mxCell>
        <mxCell id="OMyN0Gsu02lCNr_6fPPk-12" style="edgeStyle=orthogonalEdgeStyle;rounded=0;orthogonalLoop=1;jettySize=auto;html=1;entryX=0;entryY=0.5;entryDx=0;entryDy=0;" edge="1" parent="1" source="OMyN0Gsu02lCNr_6fPPk-2" target="OMyN0Gsu02lCNr_6fPPk-4">
          <mxGeometry relative="1" as="geometry" />
        </mxCell>
        <mxCell id="OMyN0Gsu02lCNr_6fPPk-14" style="edgeStyle=orthogonalEdgeStyle;rounded=0;orthogonalLoop=1;jettySize=auto;html=1;entryX=-0.006;entryY=0.402;entryDx=0;entryDy=0;entryPerimeter=0;" edge="1" parent="1" source="OMyN0Gsu02lCNr_6fPPk-2" target="OMyN0Gsu02lCNr_6fPPk-3">
          <mxGeometry relative="1" as="geometry" />
        </mxCell>
        <mxCell id="OMyN0Gsu02lCNr_6fPPk-2" value="convert to json" style="rounded=1;whiteSpace=wrap;html=1;" vertex="1" parent="1">
          <mxGeometry x="120" y="210" width="120" height="60" as="geometry" />
        </mxCell>
        <mxCell id="OMyN0Gsu02lCNr_6fPPk-16" style="edgeStyle=orthogonalEdgeStyle;rounded=0;orthogonalLoop=1;jettySize=auto;html=1;entryX=0.25;entryY=0;entryDx=0;entryDy=0;" edge="1" parent="1" source="OMyN0Gsu02lCNr_6fPPk-3" target="OMyN0Gsu02lCNr_6fPPk-6">
          <mxGeometry relative="1" as="geometry" />
        </mxCell>
        <mxCell id="OMyN0Gsu02lCNr_6fPPk-3" value="extract text from attachment" style="rounded=1;whiteSpace=wrap;html=1;" vertex="1" parent="1">
          <mxGeometry x="310" y="140" width="120" height="60" as="geometry" />
        </mxCell>
        <mxCell id="OMyN0Gsu02lCNr_6fPPk-13" style="edgeStyle=orthogonalEdgeStyle;rounded=0;orthogonalLoop=1;jettySize=auto;html=1;entryX=0;entryY=0.5;entryDx=0;entryDy=0;" edge="1" parent="1" source="OMyN0Gsu02lCNr_6fPPk-4" target="OMyN0Gsu02lCNr_6fPPk-5">
          <mxGeometry relative="1" as="geometry" />
        </mxCell>
        <mxCell id="OMyN0Gsu02lCNr_6fPPk-4" value="split pdf to pages" style="rounded=1;whiteSpace=wrap;html=1;" vertex="1" parent="1">
          <mxGeometry x="210" y="320" width="120" height="60" as="geometry" />
        </mxCell>
        <mxCell id="OMyN0Gsu02lCNr_6fPPk-17" style="edgeStyle=orthogonalEdgeStyle;rounded=0;orthogonalLoop=1;jettySize=auto;html=1;entryX=0.25;entryY=1;entryDx=0;entryDy=0;" edge="1" parent="1" source="OMyN0Gsu02lCNr_6fPPk-5" target="OMyN0Gsu02lCNr_6fPPk-6">
          <mxGeometry relative="1" as="geometry">
            <Array as="points">
              <mxPoint x="530" y="350" />
            </Array>
          </mxGeometry>
        </mxCell>
        <mxCell id="OMyN0Gsu02lCNr_6fPPk-5" value="ocr" style="rounded=1;whiteSpace=wrap;html=1;" vertex="1" parent="1">
          <mxGeometry x="380" y="320" width="120" height="60" as="geometry" />
        </mxCell>
        <mxCell id="OMyN0Gsu02lCNr_6fPPk-18" style="edgeStyle=orthogonalEdgeStyle;rounded=0;orthogonalLoop=1;jettySize=auto;html=1;exitX=0.75;exitY=0;exitDx=0;exitDy=0;entryX=0;entryY=0.5;entryDx=0;entryDy=0;" edge="1" parent="1" source="OMyN0Gsu02lCNr_6fPPk-6" target="OMyN0Gsu02lCNr_6fPPk-8">
          <mxGeometry relative="1" as="geometry" />
        </mxCell>
        <mxCell id="OMyN0Gsu02lCNr_6fPPk-6" value="feature engineering" style="rounded=1;whiteSpace=wrap;html=1;" vertex="1" parent="1">
          <mxGeometry x="500" y="210" width="120" height="60" as="geometry" />
        </mxCell>
        <mxCell id="OMyN0Gsu02lCNr_6fPPk-24" style="edgeStyle=orthogonalEdgeStyle;rounded=0;orthogonalLoop=1;jettySize=auto;html=1;entryX=0;entryY=0.5;entryDx=0;entryDy=0;" edge="1" parent="1" source="OMyN0Gsu02lCNr_6fPPk-7" target="OMyN0Gsu02lCNr_6fPPk-9">
          <mxGeometry relative="1" as="geometry" />
        </mxCell>
        <mxCell id="OMyN0Gsu02lCNr_6fPPk-7" value="prediction" style="rounded=1;whiteSpace=wrap;html=1;" vertex="1" parent="1">
          <mxGeometry x="700" y="210" width="120" height="60" as="geometry" />
        </mxCell>
        <mxCell id="OMyN0Gsu02lCNr_6fPPk-27" style="edgeStyle=orthogonalEdgeStyle;rounded=0;orthogonalLoop=1;jettySize=auto;html=1;entryX=0.25;entryY=0;entryDx=0;entryDy=0;" edge="1" parent="1" source="OMyN0Gsu02lCNr_6fPPk-8" target="OMyN0Gsu02lCNr_6fPPk-7">
          <mxGeometry relative="1" as="geometry">
            <Array as="points">
              <mxPoint x="730" y="160" />
            </Array>
          </mxGeometry>
        </mxCell>
        <mxCell id="OMyN0Gsu02lCNr_6fPPk-8" value="training" style="rounded=1;whiteSpace=wrap;html=1;fillColor=#fff2cc;strokeColor=#d6b656;" vertex="1" parent="1">
          <mxGeometry x="620" y="140" width="90" height="40" as="geometry" />
        </mxCell>
        <mxCell id="OMyN0Gsu02lCNr_6fPPk-29" style="edgeStyle=orthogonalEdgeStyle;rounded=0;orthogonalLoop=1;jettySize=auto;html=1;fontSize=20;entryX=0;entryY=0.5;entryDx=0;entryDy=0;" edge="1" parent="1" source="OMyN0Gsu02lCNr_6fPPk-9" target="OMyN0Gsu02lCNr_6fPPk-26">
          <mxGeometry relative="1" as="geometry">
            <Array as="points">
              <mxPoint x="900" y="160" />
              <mxPoint x="900" y="160" />
            </Array>
          </mxGeometry>
        </mxCell>
        <mxCell id="OMyN0Gsu02lCNr_6fPPk-9" value="score&lt;br&gt;validation" style="rounded=1;whiteSpace=wrap;html=1;fillColor=#fff2cc;strokeColor=#d6b656;" vertex="1" parent="1">
          <mxGeometry x="780" y="140" width="90" height="40" as="geometry" />
        </mxCell>
        <mxCell id="OMyN0Gsu02lCNr_6fPPk-11" style="edgeStyle=orthogonalEdgeStyle;rounded=0;orthogonalLoop=1;jettySize=auto;html=1;" edge="1" parent="1" source="OMyN0Gsu02lCNr_6fPPk-10" target="OMyN0Gsu02lCNr_6fPPk-2">
          <mxGeometry relative="1" as="geometry" />
        </mxCell>
        <mxCell id="OMyN0Gsu02lCNr_6fPPk-10" value="eml" style="image;html=1;image=img/lib/clip_art/networking/Email_128x128.png;labelPosition=center;verticalLabelPosition=top;align=center;verticalAlign=bottom;" vertex="1" parent="1">
          <mxGeometry x="40" y="80" width="30" height="40" as="geometry" />
        </mxCell>
        <mxCell id="OMyN0Gsu02lCNr_6fPPk-20" value="" style="image;html=1;image=img/lib/clip_art/networking/Email_128x128.png" vertex="1" parent="1">
          <mxGeometry x="50" y="90" width="40" height="40" as="geometry" />
        </mxCell>
        <mxCell id="OMyN0Gsu02lCNr_6fPPk-21" value="" style="image;html=1;image=img/lib/clip_art/networking/Email_128x128.png" vertex="1" parent="1">
          <mxGeometry x="60" y="100" width="40" height="40" as="geometry" />
        </mxCell>
        <mxCell id="OMyN0Gsu02lCNr_6fPPk-26" value="" style="image;html=1;image=img/lib/clip_art/finance/Graph_128x128.png" vertex="1" parent="1">
          <mxGeometry x="920" y="130" width="80" height="60" as="geometry" />
        </mxCell>
        <mxCell id="OMyN0Gsu02lCNr_6fPPk-97" style="edgeStyle=orthogonalEdgeStyle;curved=1;rounded=0;orthogonalLoop=1;jettySize=auto;html=1;entryX=1;entryY=0;entryDx=0;entryDy=0;fontSize=12;" edge="1" parent="1" source="OMyN0Gsu02lCNr_6fPPk-32" target="OMyN0Gsu02lCNr_6fPPk-62">
          <mxGeometry relative="1" as="geometry">
            <Array as="points">
              <mxPoint x="1890" y="1567" />
            </Array>
          </mxGeometry>
        </mxCell>
        <mxCell id="OMyN0Gsu02lCNr_6fPPk-32" value="Pipeline de PROD" style="ellipse;whiteSpace=wrap;html=1;fillColor=none;labelPosition=center;verticalLabelPosition=top;align=center;verticalAlign=bottom;fontSize=20;dashed=1;strokeColor=#999999;" vertex="1" parent="1">
          <mxGeometry x="1364" y="521" width="1091" height="530" as="geometry" />
        </mxCell>
        <mxCell id="OMyN0Gsu02lCNr_6fPPk-35" style="edgeStyle=orthogonalEdgeStyle;rounded=0;orthogonalLoop=1;jettySize=auto;html=1;entryX=0;entryY=0.5;entryDx=0;entryDy=0;" edge="1" parent="1" source="OMyN0Gsu02lCNr_6fPPk-37" target="OMyN0Gsu02lCNr_6fPPk-41">
          <mxGeometry relative="1" as="geometry" />
        </mxCell>
        <mxCell id="OMyN0Gsu02lCNr_6fPPk-36" style="edgeStyle=orthogonalEdgeStyle;rounded=0;orthogonalLoop=1;jettySize=auto;html=1;entryX=-0.006;entryY=0.402;entryDx=0;entryDy=0;entryPerimeter=0;" edge="1" parent="1" source="OMyN0Gsu02lCNr_6fPPk-37" target="OMyN0Gsu02lCNr_6fPPk-39">
          <mxGeometry relative="1" as="geometry" />
        </mxCell>
        <mxCell id="OMyN0Gsu02lCNr_6fPPk-37" value="convert to json" style="rounded=1;whiteSpace=wrap;html=1;" vertex="1" parent="1">
          <mxGeometry x="1602" y="783" width="120" height="60" as="geometry" />
        </mxCell>
        <mxCell id="OMyN0Gsu02lCNr_6fPPk-38" style="edgeStyle=orthogonalEdgeStyle;rounded=0;orthogonalLoop=1;jettySize=auto;html=1;entryX=0.25;entryY=0;entryDx=0;entryDy=0;" edge="1" parent="1" source="OMyN0Gsu02lCNr_6fPPk-39" target="OMyN0Gsu02lCNr_6fPPk-45">
          <mxGeometry relative="1" as="geometry" />
        </mxCell>
        <mxCell id="OMyN0Gsu02lCNr_6fPPk-39" value="extract text from attachment" style="rounded=1;whiteSpace=wrap;html=1;" vertex="1" parent="1">
          <mxGeometry x="1792" y="696" width="120" height="60" as="geometry" />
        </mxCell>
        <mxCell id="OMyN0Gsu02lCNr_6fPPk-40" style="edgeStyle=orthogonalEdgeStyle;rounded=0;orthogonalLoop=1;jettySize=auto;html=1;entryX=0;entryY=0.5;entryDx=0;entryDy=0;" edge="1" parent="1" source="OMyN0Gsu02lCNr_6fPPk-41" target="OMyN0Gsu02lCNr_6fPPk-43">
          <mxGeometry relative="1" as="geometry" />
        </mxCell>
        <mxCell id="OMyN0Gsu02lCNr_6fPPk-41" value="split pdf to pages" style="rounded=1;whiteSpace=wrap;html=1;" vertex="1" parent="1">
          <mxGeometry x="1692" y="876" width="120" height="60" as="geometry" />
        </mxCell>
        <mxCell id="OMyN0Gsu02lCNr_6fPPk-42" style="edgeStyle=orthogonalEdgeStyle;rounded=0;orthogonalLoop=1;jettySize=auto;html=1;entryX=0.25;entryY=1;entryDx=0;entryDy=0;" edge="1" parent="1" source="OMyN0Gsu02lCNr_6fPPk-43" target="OMyN0Gsu02lCNr_6fPPk-45">
          <mxGeometry relative="1" as="geometry">
            <Array as="points">
              <mxPoint x="2012" y="906" />
            </Array>
          </mxGeometry>
        </mxCell>
        <mxCell id="OMyN0Gsu02lCNr_6fPPk-43" value="ocr" style="rounded=1;whiteSpace=wrap;html=1;" vertex="1" parent="1">
          <mxGeometry x="1862" y="876" width="120" height="60" as="geometry" />
        </mxCell>
        <mxCell id="OMyN0Gsu02lCNr_6fPPk-57" style="edgeStyle=orthogonalEdgeStyle;curved=1;rounded=0;orthogonalLoop=1;jettySize=auto;html=1;fontSize=20;" edge="1" parent="1" source="OMyN0Gsu02lCNr_6fPPk-45" target="OMyN0Gsu02lCNr_6fPPk-47">
          <mxGeometry relative="1" as="geometry" />
        </mxCell>
        <mxCell id="OMyN0Gsu02lCNr_6fPPk-45" value="feature engineering" style="rounded=1;whiteSpace=wrap;html=1;" vertex="1" parent="1">
          <mxGeometry x="1982" y="766" width="120" height="60" as="geometry" />
        </mxCell>
        <mxCell id="OMyN0Gsu02lCNr_6fPPk-61" style="edgeStyle=orthogonalEdgeStyle;curved=1;rounded=0;orthogonalLoop=1;jettySize=auto;html=1;fontSize=12;dashed=1;" edge="1" parent="1" source="OMyN0Gsu02lCNr_6fPPk-47" target="OMyN0Gsu02lCNr_6fPPk-59">
          <mxGeometry relative="1" as="geometry" />
        </mxCell>
        <mxCell id="OMyN0Gsu02lCNr_6fPPk-47" value="prediction" style="rounded=1;whiteSpace=wrap;html=1;" vertex="1" parent="1">
          <mxGeometry x="2182" y="766" width="120" height="60" as="geometry" />
        </mxCell>
        <mxCell id="OMyN0Gsu02lCNr_6fPPk-52" style="edgeStyle=orthogonalEdgeStyle;rounded=0;orthogonalLoop=1;jettySize=auto;html=1;entryX=0.5;entryY=0;entryDx=0;entryDy=0;" edge="1" parent="1" source="OMyN0Gsu02lCNr_6fPPk-53" target="OMyN0Gsu02lCNr_6fPPk-102">
          <mxGeometry relative="1" as="geometry" />
        </mxCell>
        <mxCell id="OMyN0Gsu02lCNr_6fPPk-53" value="eml" style="image;html=1;image=img/lib/clip_art/networking/Email_128x128.png;labelPosition=center;verticalLabelPosition=top;align=center;verticalAlign=bottom;" vertex="1" parent="1">
          <mxGeometry x="1522" y="636" width="30" height="40" as="geometry" />
        </mxCell>
        <mxCell id="OMyN0Gsu02lCNr_6fPPk-59" value="&lt;font style=&quot;font-size: 12px;&quot;&gt;Réponse au client&lt;/font&gt;" style="shape=parallelogram;perimeter=parallelogramPerimeter;whiteSpace=wrap;html=1;fixedSize=1;strokeColor=#999999;fontSize=20;fillColor=none;" vertex="1" parent="1">
          <mxGeometry x="2204" y="876" width="154" height="46" as="geometry" />
        </mxCell>
        <mxCell id="OMyN0Gsu02lCNr_6fPPk-159" style="edgeStyle=orthogonalEdgeStyle;rounded=0;orthogonalLoop=1;jettySize=auto;html=1;entryX=1.014;entryY=0.564;entryDx=0;entryDy=0;entryPerimeter=0;fontSize=12;curved=1;exitX=0.5;exitY=1;exitDx=0;exitDy=0;" edge="1" parent="1" source="OMyN0Gsu02lCNr_6fPPk-62" target="OMyN0Gsu02lCNr_6fPPk-118">
          <mxGeometry relative="1" as="geometry" />
        </mxCell>
        <mxCell id="OMyN0Gsu02lCNr_6fPPk-62" value="Pipeline de PROD HA" style="ellipse;whiteSpace=wrap;html=1;fillColor=none;labelPosition=center;verticalLabelPosition=top;align=center;verticalAlign=bottom;fontSize=20;dashed=1;strokeColor=#999999;" vertex="1" parent="1">
          <mxGeometry x="734" y="1489" width="1091" height="530" as="geometry" />
        </mxCell>
        <mxCell id="OMyN0Gsu02lCNr_6fPPk-63" style="edgeStyle=orthogonalEdgeStyle;rounded=0;orthogonalLoop=1;jettySize=auto;html=1;entryX=0;entryY=0.5;entryDx=0;entryDy=0;" edge="1" parent="1" source="OMyN0Gsu02lCNr_6fPPk-65" target="OMyN0Gsu02lCNr_6fPPk-69">
          <mxGeometry relative="1" as="geometry" />
        </mxCell>
        <mxCell id="OMyN0Gsu02lCNr_6fPPk-64" style="edgeStyle=orthogonalEdgeStyle;rounded=0;orthogonalLoop=1;jettySize=auto;html=1;entryX=-0.006;entryY=0.402;entryDx=0;entryDy=0;entryPerimeter=0;" edge="1" parent="1" source="OMyN0Gsu02lCNr_6fPPk-65" target="OMyN0Gsu02lCNr_6fPPk-67">
          <mxGeometry relative="1" as="geometry" />
        </mxCell>
        <mxCell id="OMyN0Gsu02lCNr_6fPPk-65" value="convert to json" style="rounded=1;whiteSpace=wrap;html=1;" vertex="1" parent="1">
          <mxGeometry x="972" y="1734" width="120" height="60" as="geometry" />
        </mxCell>
        <mxCell id="OMyN0Gsu02lCNr_6fPPk-66" style="edgeStyle=orthogonalEdgeStyle;rounded=0;orthogonalLoop=1;jettySize=auto;html=1;entryX=0.25;entryY=0;entryDx=0;entryDy=0;" edge="1" parent="1" source="OMyN0Gsu02lCNr_6fPPk-67" target="OMyN0Gsu02lCNr_6fPPk-73">
          <mxGeometry relative="1" as="geometry" />
        </mxCell>
        <mxCell id="OMyN0Gsu02lCNr_6fPPk-67" value="extract text from attachment" style="rounded=1;whiteSpace=wrap;html=1;" vertex="1" parent="1">
          <mxGeometry x="1162" y="1664" width="120" height="60" as="geometry" />
        </mxCell>
        <mxCell id="OMyN0Gsu02lCNr_6fPPk-68" style="edgeStyle=orthogonalEdgeStyle;rounded=0;orthogonalLoop=1;jettySize=auto;html=1;entryX=0;entryY=0.5;entryDx=0;entryDy=0;" edge="1" parent="1" source="OMyN0Gsu02lCNr_6fPPk-69" target="OMyN0Gsu02lCNr_6fPPk-71">
          <mxGeometry relative="1" as="geometry" />
        </mxCell>
        <mxCell id="OMyN0Gsu02lCNr_6fPPk-69" value="split pdf to pages" style="rounded=1;whiteSpace=wrap;html=1;" vertex="1" parent="1">
          <mxGeometry x="1062" y="1844" width="120" height="60" as="geometry" />
        </mxCell>
        <mxCell id="OMyN0Gsu02lCNr_6fPPk-70" style="edgeStyle=orthogonalEdgeStyle;rounded=0;orthogonalLoop=1;jettySize=auto;html=1;" edge="1" parent="1" source="OMyN0Gsu02lCNr_6fPPk-71" target="OMyN0Gsu02lCNr_6fPPk-94">
          <mxGeometry relative="1" as="geometry">
            <Array as="points">
              <mxPoint x="1430" y="1874" />
            </Array>
          </mxGeometry>
        </mxCell>
        <mxCell id="OMyN0Gsu02lCNr_6fPPk-71" value="ocr" style="rounded=1;whiteSpace=wrap;html=1;" vertex="1" parent="1">
          <mxGeometry x="1232" y="1844" width="120" height="60" as="geometry" />
        </mxCell>
        <mxCell id="OMyN0Gsu02lCNr_6fPPk-72" style="edgeStyle=orthogonalEdgeStyle;curved=1;rounded=0;orthogonalLoop=1;jettySize=auto;html=1;fontSize=20;" edge="1" parent="1" source="OMyN0Gsu02lCNr_6fPPk-73" target="OMyN0Gsu02lCNr_6fPPk-75">
          <mxGeometry relative="1" as="geometry" />
        </mxCell>
        <mxCell id="OMyN0Gsu02lCNr_6fPPk-73" value="feature engineering" style="rounded=1;whiteSpace=wrap;html=1;" vertex="1" parent="1">
          <mxGeometry x="1352" y="1734" width="120" height="60" as="geometry" />
        </mxCell>
        <mxCell id="OMyN0Gsu02lCNr_6fPPk-74" style="edgeStyle=orthogonalEdgeStyle;curved=1;rounded=0;orthogonalLoop=1;jettySize=auto;html=1;fontSize=12;dashed=1;" edge="1" parent="1" source="OMyN0Gsu02lCNr_6fPPk-75" target="OMyN0Gsu02lCNr_6fPPk-78">
          <mxGeometry relative="1" as="geometry" />
        </mxCell>
        <mxCell id="OMyN0Gsu02lCNr_6fPPk-75" value="prediction" style="rounded=1;whiteSpace=wrap;html=1;" vertex="1" parent="1">
          <mxGeometry x="1552" y="1734" width="120" height="60" as="geometry" />
        </mxCell>
        <mxCell id="OMyN0Gsu02lCNr_6fPPk-77" value="eml" style="image;html=1;image=img/lib/clip_art/networking/Email_128x128.png;labelPosition=center;verticalLabelPosition=top;align=center;verticalAlign=bottom;" vertex="1" parent="1">
          <mxGeometry x="860" y="1604" width="30" height="40" as="geometry" />
        </mxCell>
        <mxCell id="OMyN0Gsu02lCNr_6fPPk-78" value="&lt;font style=&quot;font-size: 12px;&quot;&gt;Réponse au client&lt;/font&gt;" style="shape=parallelogram;perimeter=parallelogramPerimeter;whiteSpace=wrap;html=1;fixedSize=1;strokeColor=#999999;fontSize=20;fillColor=none;" vertex="1" parent="1">
          <mxGeometry x="1574" y="1844" width="154" height="46" as="geometry" />
        </mxCell>
        <mxCell id="OMyN0Gsu02lCNr_6fPPk-79" value="convert to json" style="rounded=1;whiteSpace=wrap;html=1;" vertex="1" parent="1">
          <mxGeometry x="982" y="1744" width="120" height="60" as="geometry" />
        </mxCell>
        <mxCell id="OMyN0Gsu02lCNr_6fPPk-80" value="convert to json" style="rounded=1;whiteSpace=wrap;html=1;" vertex="1" parent="1">
          <mxGeometry x="992" y="1754" width="120" height="60" as="geometry" />
        </mxCell>
        <mxCell id="OMyN0Gsu02lCNr_6fPPk-83" value="extract text from attachment" style="rounded=1;whiteSpace=wrap;html=1;" vertex="1" parent="1">
          <mxGeometry x="1172" y="1674" width="120" height="60" as="geometry" />
        </mxCell>
        <mxCell id="OMyN0Gsu02lCNr_6fPPk-84" value="extract text from attachment" style="rounded=1;whiteSpace=wrap;html=1;" vertex="1" parent="1">
          <mxGeometry x="1182" y="1684" width="120" height="60" as="geometry" />
        </mxCell>
        <mxCell id="OMyN0Gsu02lCNr_6fPPk-85" value="split pdf to pages" style="rounded=1;whiteSpace=wrap;html=1;" vertex="1" parent="1">
          <mxGeometry x="1072" y="1854" width="120" height="60" as="geometry" />
        </mxCell>
        <mxCell id="OMyN0Gsu02lCNr_6fPPk-86" value="split pdf to pages" style="rounded=1;whiteSpace=wrap;html=1;" vertex="1" parent="1">
          <mxGeometry x="1082" y="1864" width="120" height="60" as="geometry" />
        </mxCell>
        <mxCell id="OMyN0Gsu02lCNr_6fPPk-87" value="split pdf to pages" style="rounded=1;whiteSpace=wrap;html=1;" vertex="1" parent="1">
          <mxGeometry x="1092" y="1874" width="120" height="60" as="geometry" />
        </mxCell>
        <mxCell id="OMyN0Gsu02lCNr_6fPPk-88" value="ocr" style="rounded=1;whiteSpace=wrap;html=1;" vertex="1" parent="1">
          <mxGeometry x="1242" y="1854" width="120" height="60" as="geometry" />
        </mxCell>
        <mxCell id="OMyN0Gsu02lCNr_6fPPk-89" value="ocr" style="rounded=1;whiteSpace=wrap;html=1;" vertex="1" parent="1">
          <mxGeometry x="1252" y="1864" width="120" height="60" as="geometry" />
        </mxCell>
        <mxCell id="OMyN0Gsu02lCNr_6fPPk-90" value="ocr" style="rounded=1;whiteSpace=wrap;html=1;" vertex="1" parent="1">
          <mxGeometry x="1262" y="1874" width="120" height="60" as="geometry" />
        </mxCell>
        <mxCell id="OMyN0Gsu02lCNr_6fPPk-91" value="ocr" style="rounded=1;whiteSpace=wrap;html=1;" vertex="1" parent="1">
          <mxGeometry x="1272" y="1884" width="120" height="60" as="geometry" />
        </mxCell>
        <mxCell id="OMyN0Gsu02lCNr_6fPPk-92" value="ocr" style="rounded=1;whiteSpace=wrap;html=1;" vertex="1" parent="1">
          <mxGeometry x="1282" y="1894" width="120" height="60" as="geometry" />
        </mxCell>
        <mxCell id="OMyN0Gsu02lCNr_6fPPk-93" value="feature engineering" style="rounded=1;whiteSpace=wrap;html=1;" vertex="1" parent="1">
          <mxGeometry x="1362" y="1744" width="120" height="60" as="geometry" />
        </mxCell>
        <mxCell id="OMyN0Gsu02lCNr_6fPPk-94" value="feature engineering" style="rounded=1;whiteSpace=wrap;html=1;" vertex="1" parent="1">
          <mxGeometry x="1372" y="1754" width="120" height="60" as="geometry" />
        </mxCell>
        <mxCell id="OMyN0Gsu02lCNr_6fPPk-95" value="prediction" style="rounded=1;whiteSpace=wrap;html=1;" vertex="1" parent="1">
          <mxGeometry x="1562" y="1744" width="120" height="60" as="geometry" />
        </mxCell>
        <mxCell id="OMyN0Gsu02lCNr_6fPPk-96" value="prediction" style="rounded=1;whiteSpace=wrap;html=1;" vertex="1" parent="1">
          <mxGeometry x="1572" y="1754" width="120" height="60" as="geometry" />
        </mxCell>
        <mxCell id="OMyN0Gsu02lCNr_6fPPk-98" value="eml" style="image;html=1;image=img/lib/clip_art/networking/Email_128x128.png;labelPosition=center;verticalLabelPosition=top;align=center;verticalAlign=bottom;" vertex="1" parent="1">
          <mxGeometry x="870" y="1614" width="30" height="40" as="geometry" />
        </mxCell>
        <mxCell id="OMyN0Gsu02lCNr_6fPPk-99" value="eml" style="image;html=1;image=img/lib/clip_art/networking/Email_128x128.png;labelPosition=center;verticalLabelPosition=top;align=center;verticalAlign=bottom;" vertex="1" parent="1">
          <mxGeometry x="880" y="1624" width="30" height="40" as="geometry" />
        </mxCell>
        <mxCell id="OMyN0Gsu02lCNr_6fPPk-104" style="edgeStyle=orthogonalEdgeStyle;rounded=0;orthogonalLoop=1;jettySize=auto;html=1;exitX=0.5;exitY=1;exitDx=0;exitDy=0;entryX=0.5;entryY=0;entryDx=0;entryDy=0;fontSize=12;" edge="1" parent="1" source="OMyN0Gsu02lCNr_6fPPk-102" target="OMyN0Gsu02lCNr_6fPPk-37">
          <mxGeometry relative="1" as="geometry" />
        </mxCell>
        <mxCell id="OMyN0Gsu02lCNr_6fPPk-102" value="api upload" style="rounded=1;whiteSpace=wrap;html=1;" vertex="1" parent="1">
          <mxGeometry x="1602" y="690" width="120" height="60" as="geometry" />
        </mxCell>
        <mxCell id="OMyN0Gsu02lCNr_6fPPk-105" value="redis in memory" style="shape=cylinder3;whiteSpace=wrap;html=1;boundedLbl=1;backgroundOutline=1;size=15;strokeColor=#000000;fontSize=12;fillColor=none;" vertex="1" parent="1">
          <mxGeometry x="1912" y="575" width="60" height="80" as="geometry" />
        </mxCell>
        <mxCell id="OMyN0Gsu02lCNr_6fPPk-106" value="redis in memory" style="shape=cylinder3;whiteSpace=wrap;html=1;boundedLbl=1;backgroundOutline=1;size=15;strokeColor=#000000;fontSize=12;fillColor=default;" vertex="1" parent="1">
          <mxGeometry x="1270" y="1519" width="60" height="80" as="geometry" />
        </mxCell>
        <mxCell id="OMyN0Gsu02lCNr_6fPPk-109" value="redis in memory" style="shape=cylinder3;whiteSpace=wrap;html=1;boundedLbl=1;backgroundOutline=1;size=15;strokeColor=#000000;fontSize=12;fillColor=default;" vertex="1" parent="1">
          <mxGeometry x="1280" y="1529" width="60" height="80" as="geometry" />
        </mxCell>
        <mxCell id="OMyN0Gsu02lCNr_6fPPk-110" value="redis in memory" style="shape=cylinder3;whiteSpace=wrap;html=1;boundedLbl=1;backgroundOutline=1;size=15;strokeColor=#000000;fontSize=12;fillColor=default;" vertex="1" parent="1">
          <mxGeometry x="1290" y="1539" width="60" height="80" as="geometry" />
        </mxCell>
        <mxCell id="OMyN0Gsu02lCNr_6fPPk-114" style="edgeStyle=orthogonalEdgeStyle;rounded=0;orthogonalLoop=1;jettySize=auto;html=1;fontSize=12;" edge="1" parent="1" source="OMyN0Gsu02lCNr_6fPPk-111" target="OMyN0Gsu02lCNr_6fPPk-65">
          <mxGeometry relative="1" as="geometry" />
        </mxCell>
        <mxCell id="OMyN0Gsu02lCNr_6fPPk-111" value="api upload" style="rounded=1;whiteSpace=wrap;html=1;" vertex="1" parent="1">
          <mxGeometry x="972" y="1624" width="120" height="60" as="geometry" />
        </mxCell>
        <mxCell id="OMyN0Gsu02lCNr_6fPPk-115" value="api upload" style="rounded=1;whiteSpace=wrap;html=1;" vertex="1" parent="1">
          <mxGeometry x="982" y="1634" width="120" height="60" as="geometry" />
        </mxCell>
        <mxCell id="OMyN0Gsu02lCNr_6fPPk-117" style="edgeStyle=orthogonalEdgeStyle;rounded=0;orthogonalLoop=1;jettySize=auto;html=1;fontSize=12;" edge="1" parent="1" source="OMyN0Gsu02lCNr_6fPPk-99" target="OMyN0Gsu02lCNr_6fPPk-115">
          <mxGeometry relative="1" as="geometry" />
        </mxCell>
        <mxCell id="OMyN0Gsu02lCNr_6fPPk-118" value="Pipeline de PROD HA / Async" style="ellipse;whiteSpace=wrap;html=1;fillColor=none;labelPosition=center;verticalLabelPosition=top;align=center;verticalAlign=bottom;fontSize=20;dashed=1;strokeColor=#999999;" vertex="1" parent="1">
          <mxGeometry x="-666" y="1941" width="1091" height="530" as="geometry" />
        </mxCell>
        <mxCell id="OMyN0Gsu02lCNr_6fPPk-119" style="edgeStyle=orthogonalEdgeStyle;rounded=0;orthogonalLoop=1;jettySize=auto;html=1;entryX=0;entryY=0.5;entryDx=0;entryDy=0;" edge="1" parent="1" source="OMyN0Gsu02lCNr_6fPPk-121" target="OMyN0Gsu02lCNr_6fPPk-125">
          <mxGeometry relative="1" as="geometry">
            <Array as="points">
              <mxPoint x="-395" y="2331" />
            </Array>
          </mxGeometry>
        </mxCell>
        <mxCell id="OMyN0Gsu02lCNr_6fPPk-120" style="edgeStyle=orthogonalEdgeStyle;rounded=0;orthogonalLoop=1;jettySize=auto;html=1;entryX=-0.006;entryY=0.402;entryDx=0;entryDy=0;entryPerimeter=0;" edge="1" parent="1" source="OMyN0Gsu02lCNr_6fPPk-121" target="OMyN0Gsu02lCNr_6fPPk-123">
          <mxGeometry relative="1" as="geometry" />
        </mxCell>
        <mxCell id="OMyN0Gsu02lCNr_6fPPk-121" value="convert to json" style="rounded=1;whiteSpace=wrap;html=1;" vertex="1" parent="1">
          <mxGeometry x="-428" y="2191" width="120" height="60" as="geometry" />
        </mxCell>
        <mxCell id="OMyN0Gsu02lCNr_6fPPk-122" style="edgeStyle=orthogonalEdgeStyle;rounded=0;orthogonalLoop=1;jettySize=auto;html=1;entryX=0.25;entryY=0;entryDx=0;entryDy=0;" edge="1" parent="1" source="OMyN0Gsu02lCNr_6fPPk-123" target="OMyN0Gsu02lCNr_6fPPk-129">
          <mxGeometry relative="1" as="geometry" />
        </mxCell>
        <mxCell id="OMyN0Gsu02lCNr_6fPPk-123" value="extract text from attachment" style="rounded=1;whiteSpace=wrap;html=1;" vertex="1" parent="1">
          <mxGeometry x="-238" y="2121" width="120" height="60" as="geometry" />
        </mxCell>
        <mxCell id="OMyN0Gsu02lCNr_6fPPk-125" value="split pdf to pages" style="rounded=1;whiteSpace=wrap;html=1;" vertex="1" parent="1">
          <mxGeometry x="-338" y="2301" width="120" height="60" as="geometry" />
        </mxCell>
        <mxCell id="OMyN0Gsu02lCNr_6fPPk-126" style="edgeStyle=orthogonalEdgeStyle;rounded=0;orthogonalLoop=1;jettySize=auto;html=1;" edge="1" parent="1" source="OMyN0Gsu02lCNr_6fPPk-127" target="OMyN0Gsu02lCNr_6fPPk-147">
          <mxGeometry relative="1" as="geometry">
            <Array as="points">
              <mxPoint x="23" y="2331" />
            </Array>
          </mxGeometry>
        </mxCell>
        <mxCell id="OMyN0Gsu02lCNr_6fPPk-127" value="ocr" style="rounded=1;whiteSpace=wrap;html=1;" vertex="1" parent="1">
          <mxGeometry x="-168" y="2301" width="120" height="60" as="geometry" />
        </mxCell>
        <mxCell id="OMyN0Gsu02lCNr_6fPPk-128" style="edgeStyle=orthogonalEdgeStyle;curved=1;rounded=0;orthogonalLoop=1;jettySize=auto;html=1;fontSize=20;exitX=1;exitY=0.75;exitDx=0;exitDy=0;" edge="1" parent="1" source="OMyN0Gsu02lCNr_6fPPk-147" target="OMyN0Gsu02lCNr_6fPPk-131">
          <mxGeometry relative="1" as="geometry" />
        </mxCell>
        <mxCell id="OMyN0Gsu02lCNr_6fPPk-129" value="feature engineering" style="rounded=1;whiteSpace=wrap;html=1;" vertex="1" parent="1">
          <mxGeometry x="-48" y="2191" width="120" height="60" as="geometry" />
        </mxCell>
        <mxCell id="OMyN0Gsu02lCNr_6fPPk-130" style="edgeStyle=orthogonalEdgeStyle;curved=1;rounded=0;orthogonalLoop=1;jettySize=auto;html=1;fontSize=12;dashed=1;" edge="1" parent="1" source="OMyN0Gsu02lCNr_6fPPk-131" target="OMyN0Gsu02lCNr_6fPPk-133">
          <mxGeometry relative="1" as="geometry" />
        </mxCell>
        <mxCell id="OMyN0Gsu02lCNr_6fPPk-131" value="prediction" style="rounded=1;whiteSpace=wrap;html=1;" vertex="1" parent="1">
          <mxGeometry x="152" y="2191" width="120" height="60" as="geometry" />
        </mxCell>
        <mxCell id="OMyN0Gsu02lCNr_6fPPk-132" value="eml" style="image;html=1;image=img/lib/clip_art/networking/Email_128x128.png;labelPosition=center;verticalLabelPosition=top;align=center;verticalAlign=bottom;" vertex="1" parent="1">
          <mxGeometry x="-540" y="2061" width="30" height="40" as="geometry" />
        </mxCell>
        <mxCell id="OMyN0Gsu02lCNr_6fPPk-133" value="&lt;font style=&quot;font-size: 12px;&quot;&gt;Réponse au client&lt;/font&gt;" style="shape=parallelogram;perimeter=parallelogramPerimeter;whiteSpace=wrap;html=1;fixedSize=1;strokeColor=#999999;fontSize=20;fillColor=none;" vertex="1" parent="1">
          <mxGeometry x="174" y="2301" width="154" height="46" as="geometry" />
        </mxCell>
        <mxCell id="OMyN0Gsu02lCNr_6fPPk-134" value="convert to json" style="rounded=1;whiteSpace=wrap;html=1;" vertex="1" parent="1">
          <mxGeometry x="-418" y="2201" width="120" height="60" as="geometry" />
        </mxCell>
        <mxCell id="OMyN0Gsu02lCNr_6fPPk-135" value="convert to json" style="rounded=1;whiteSpace=wrap;html=1;" vertex="1" parent="1">
          <mxGeometry x="-408" y="2211" width="120" height="60" as="geometry" />
        </mxCell>
        <mxCell id="OMyN0Gsu02lCNr_6fPPk-136" value="extract text from attachment" style="rounded=1;whiteSpace=wrap;html=1;" vertex="1" parent="1">
          <mxGeometry x="-228" y="2131" width="120" height="60" as="geometry" />
        </mxCell>
        <mxCell id="OMyN0Gsu02lCNr_6fPPk-137" value="extract text from attachment" style="rounded=1;whiteSpace=wrap;html=1;" vertex="1" parent="1">
          <mxGeometry x="-218" y="2141" width="120" height="60" as="geometry" />
        </mxCell>
        <mxCell id="OMyN0Gsu02lCNr_6fPPk-138" value="split pdf to pages" style="rounded=1;whiteSpace=wrap;html=1;" vertex="1" parent="1">
          <mxGeometry x="-328" y="2311" width="120" height="60" as="geometry" />
        </mxCell>
        <mxCell id="OMyN0Gsu02lCNr_6fPPk-139" value="split pdf to pages" style="rounded=1;whiteSpace=wrap;html=1;" vertex="1" parent="1">
          <mxGeometry x="-318" y="2321" width="120" height="60" as="geometry" />
        </mxCell>
        <mxCell id="OMyN0Gsu02lCNr_6fPPk-170" style="edgeStyle=orthogonalEdgeStyle;curved=1;rounded=0;orthogonalLoop=1;jettySize=auto;html=1;fontSize=12;entryX=0;entryY=1;entryDx=0;entryDy=0;" edge="1" parent="1" source="OMyN0Gsu02lCNr_6fPPk-140" target="OMyN0Gsu02lCNr_6fPPk-145">
          <mxGeometry relative="1" as="geometry">
            <Array as="points">
              <mxPoint x="-248" y="2412" />
              <mxPoint x="-153" y="2412" />
              <mxPoint x="-153" y="2427" />
              <mxPoint x="-118" y="2427" />
            </Array>
          </mxGeometry>
        </mxCell>
        <mxCell id="OMyN0Gsu02lCNr_6fPPk-140" value="split pdf to pages" style="rounded=1;whiteSpace=wrap;html=1;" vertex="1" parent="1">
          <mxGeometry x="-308" y="2331" width="120" height="60" as="geometry" />
        </mxCell>
        <mxCell id="OMyN0Gsu02lCNr_6fPPk-141" value="ocr" style="rounded=1;whiteSpace=wrap;html=1;" vertex="1" parent="1">
          <mxGeometry x="-158" y="2311" width="120" height="60" as="geometry" />
        </mxCell>
        <mxCell id="OMyN0Gsu02lCNr_6fPPk-142" value="ocr" style="rounded=1;whiteSpace=wrap;html=1;" vertex="1" parent="1">
          <mxGeometry x="-148" y="2321" width="120" height="60" as="geometry" />
        </mxCell>
        <mxCell id="OMyN0Gsu02lCNr_6fPPk-143" value="ocr" style="rounded=1;whiteSpace=wrap;html=1;" vertex="1" parent="1">
          <mxGeometry x="-138" y="2331" width="120" height="60" as="geometry" />
        </mxCell>
        <mxCell id="OMyN0Gsu02lCNr_6fPPk-144" value="ocr" style="rounded=1;whiteSpace=wrap;html=1;" vertex="1" parent="1">
          <mxGeometry x="-128" y="2341" width="120" height="60" as="geometry" />
        </mxCell>
        <mxCell id="OMyN0Gsu02lCNr_6fPPk-145" value="ocr" style="rounded=1;whiteSpace=wrap;html=1;" vertex="1" parent="1">
          <mxGeometry x="-118" y="2351" width="120" height="60" as="geometry" />
        </mxCell>
        <mxCell id="OMyN0Gsu02lCNr_6fPPk-146" value="feature engineering" style="rounded=1;whiteSpace=wrap;html=1;" vertex="1" parent="1">
          <mxGeometry x="-38" y="2201" width="120" height="60" as="geometry" />
        </mxCell>
        <mxCell id="OMyN0Gsu02lCNr_6fPPk-147" value="feature engineering" style="rounded=1;whiteSpace=wrap;html=1;" vertex="1" parent="1">
          <mxGeometry x="-28" y="2211" width="120" height="60" as="geometry" />
        </mxCell>
        <mxCell id="OMyN0Gsu02lCNr_6fPPk-148" value="prediction" style="rounded=1;whiteSpace=wrap;html=1;" vertex="1" parent="1">
          <mxGeometry x="162" y="2201" width="120" height="60" as="geometry" />
        </mxCell>
        <mxCell id="OMyN0Gsu02lCNr_6fPPk-149" value="prediction" style="rounded=1;whiteSpace=wrap;html=1;" vertex="1" parent="1">
          <mxGeometry x="172" y="2211" width="120" height="60" as="geometry" />
        </mxCell>
        <mxCell id="OMyN0Gsu02lCNr_6fPPk-150" value="eml" style="image;html=1;image=img/lib/clip_art/networking/Email_128x128.png;labelPosition=center;verticalLabelPosition=top;align=center;verticalAlign=bottom;" vertex="1" parent="1">
          <mxGeometry x="-530" y="2071" width="30" height="40" as="geometry" />
        </mxCell>
        <mxCell id="OMyN0Gsu02lCNr_6fPPk-151" value="eml" style="image;html=1;image=img/lib/clip_art/networking/Email_128x128.png;labelPosition=center;verticalLabelPosition=top;align=center;verticalAlign=bottom;" vertex="1" parent="1">
          <mxGeometry x="-520" y="2081" width="30" height="40" as="geometry" />
        </mxCell>
        <mxCell id="OMyN0Gsu02lCNr_6fPPk-152" value="redis in memory" style="shape=cylinder3;whiteSpace=wrap;html=1;boundedLbl=1;backgroundOutline=1;size=15;strokeColor=#000000;fontSize=12;fillColor=default;" vertex="1" parent="1">
          <mxGeometry x="-130" y="1976" width="60" height="80" as="geometry" />
        </mxCell>
        <mxCell id="OMyN0Gsu02lCNr_6fPPk-153" value="redis in memory" style="shape=cylinder3;whiteSpace=wrap;html=1;boundedLbl=1;backgroundOutline=1;size=15;strokeColor=#000000;fontSize=12;fillColor=default;" vertex="1" parent="1">
          <mxGeometry x="-120" y="1986" width="60" height="80" as="geometry" />
        </mxCell>
        <mxCell id="OMyN0Gsu02lCNr_6fPPk-154" value="redis in memory" style="shape=cylinder3;whiteSpace=wrap;html=1;boundedLbl=1;backgroundOutline=1;size=15;strokeColor=#000000;fontSize=12;fillColor=default;" vertex="1" parent="1">
          <mxGeometry x="-110" y="1996" width="60" height="80" as="geometry" />
        </mxCell>
        <mxCell id="OMyN0Gsu02lCNr_6fPPk-156" value="api upload" style="rounded=1;whiteSpace=wrap;html=1;" vertex="1" parent="1">
          <mxGeometry x="-428" y="2081" width="120" height="60" as="geometry" />
        </mxCell>
        <mxCell id="OMyN0Gsu02lCNr_6fPPk-164" style="edgeStyle=orthogonalEdgeStyle;curved=1;rounded=0;orthogonalLoop=1;jettySize=auto;html=1;fontSize=12;" edge="1" parent="1" source="OMyN0Gsu02lCNr_6fPPk-157" target="OMyN0Gsu02lCNr_6fPPk-121">
          <mxGeometry relative="1" as="geometry" />
        </mxCell>
        <mxCell id="OMyN0Gsu02lCNr_6fPPk-157" value="api upload" style="rounded=1;whiteSpace=wrap;html=1;" vertex="1" parent="1">
          <mxGeometry x="-418" y="2091" width="120" height="60" as="geometry" />
        </mxCell>
        <mxCell id="OMyN0Gsu02lCNr_6fPPk-158" style="edgeStyle=orthogonalEdgeStyle;rounded=0;orthogonalLoop=1;jettySize=auto;html=1;fontSize=12;" edge="1" parent="1" source="OMyN0Gsu02lCNr_6fPPk-151" target="OMyN0Gsu02lCNr_6fPPk-157">
          <mxGeometry relative="1" as="geometry" />
        </mxCell>
        <mxCell id="OMyN0Gsu02lCNr_6fPPk-160" value="" style="shape=cylinder3;whiteSpace=wrap;html=1;boundedLbl=1;backgroundOutline=1;size=6.275232927159323;strokeColor=#9673a6;fontSize=12;fillColor=#e1d5e7;rotation=90;" vertex="1" parent="1">
          <mxGeometry x="-373" y="2141" width="15.09" height="52" as="geometry" />
        </mxCell>
        <mxCell id="OMyN0Gsu02lCNr_6fPPk-165" value="" style="shape=cylinder3;whiteSpace=wrap;html=1;boundedLbl=1;backgroundOutline=1;size=6.275232927159323;strokeColor=#9673a6;fontSize=12;fillColor=#e1d5e7;rotation=90;" vertex="1" parent="1">
          <mxGeometry x="-388.09" y="2305" width="15.09" height="52" as="geometry" />
        </mxCell>
        <mxCell id="OMyN0Gsu02lCNr_6fPPk-166" value="" style="shape=cylinder3;whiteSpace=wrap;html=1;boundedLbl=1;backgroundOutline=1;size=6.275232927159323;strokeColor=#9673a6;fontSize=12;fillColor=#e1d5e7;rotation=90;" vertex="1" parent="1">
          <mxGeometry x="-278.99999999999994" y="2151" width="15.09" height="52" as="geometry" />
        </mxCell>
        <mxCell id="OMyN0Gsu02lCNr_6fPPk-172" value="" style="shape=cylinder3;whiteSpace=wrap;html=1;boundedLbl=1;backgroundOutline=1;size=6.275232927159323;strokeColor=#9673a6;fontSize=12;fillColor=#e1d5e7;rotation=90;" vertex="1" parent="1">
          <mxGeometry x="-189.99999999999997" y="2387" width="15.09" height="52" as="geometry" />
        </mxCell>
        <mxCell id="OMyN0Gsu02lCNr_6fPPk-173" value="" style="shape=cylinder3;whiteSpace=wrap;html=1;boundedLbl=1;backgroundOutline=1;size=6.275232927159323;strokeColor=#9673a6;fontSize=12;fillColor=#e1d5e7;rotation=90;" vertex="1" parent="1">
          <mxGeometry x="-56.99999999999994" y="2126" width="15.09" height="52" as="geometry" />
        </mxCell>
        <mxCell id="OMyN0Gsu02lCNr_6fPPk-176" value="" style="shape=cylinder3;whiteSpace=wrap;html=1;boundedLbl=1;backgroundOutline=1;size=6.275232927159323;strokeColor=#9673a6;fontSize=12;fillColor=#e1d5e7;rotation=90;" vertex="1" parent="1">
          <mxGeometry x="8.000000000000057" y="2303" width="15.09" height="52" as="geometry" />
        </mxCell>
        <mxCell id="OMyN0Gsu02lCNr_6fPPk-178" value="" style="shape=cylinder3;whiteSpace=wrap;html=1;boundedLbl=1;backgroundOutline=1;size=6.275232927159323;strokeColor=#9673a6;fontSize=12;fillColor=#e1d5e7;rotation=90;" vertex="1" parent="1">
          <mxGeometry x="113.00000000000006" y="2217" width="15.09" height="52" as="geometry" />
        </mxCell>
      </root>
    </mxGraphModel>
  </diagram>
</mxfile>
